<?xml version="1.0" encoding="utf-8"?>
<!-- Generator: Adobe Illustrator 16.0.0, SVG Export Plug-In . SVG Version: 6.00 Build 0)  -->
<!DOCTYPE svg PUBLIC "-//W3C//DTD SVG 1.1//EN" "http://www.w3.org/Graphics/SVG/1.1/DTD/svg11.dtd">
<svg version="1.1" id="Layer_1" xmlns="http://www.w3.org/2000/svg" xmlns:xlink="http://www.w3.org/1999/xlink" x="0px" y="0px"
	 width="756.151px" height="386.461px" viewBox="0 0 756.151 386.461" enable-background="new 0 0 756.151 386.461"
	 xml:space="preserve">
<rect x="0.075" y="0.075" fill="none" stroke="#A6A8AB" stroke-width="0.15" stroke-miterlimit="10" width="756" height="386.311"/>
<g>
	<rect x="238.005" y="129.271" fill="#20B5AE" width="120" height="120"/>
	<rect x="401.245" y="129.271" fill="#DDDDDD" width="120" height="120"/>
	<g>
		<g>
			<g>
				<g>
					<path fill="#FFFFFF" d="M267.656,181.487c0-0.81,0.11-1.52,0.33-2.132c0.22-0.611,0.523-1.122,0.911-1.531
						c0.387-0.409,0.851-0.717,1.393-0.924c0.541-0.207,1.133-0.31,1.775-0.31c0.51,0,1.027,0.079,1.551,0.237
						c0.523,0.159,0.997,0.425,1.419,0.799s0.768,0.875,1.036,1.505c0.269,0.629,0.403,1.415,0.403,2.356
						c0,0.801-0.097,1.481-0.291,2.04c-0.193,0.559-0.438,1.019-0.732,1.379c-0.295,0.361-0.619,0.64-0.97,0.838
						c-0.352,0.198-0.691,0.345-1.017,0.442s-0.616,0.154-0.871,0.172c-0.255,0.018-0.431,0.026-0.528,0.026
						c-0.097,0-0.275-0.009-0.535-0.026c-0.26-0.018-0.552-0.075-0.878-0.172s-0.665-0.244-1.016-0.442
						c-0.352-0.198-0.676-0.478-0.97-0.838c-0.295-0.361-0.537-0.818-0.726-1.373C267.75,182.979,267.656,182.297,267.656,181.487z
						 M268.976,181.487c0,0.37,0.037,0.779,0.112,1.228c0.075,0.449,0.222,0.869,0.442,1.261c0.22,0.392,0.532,0.717,0.938,0.977
						c0.404,0.259,0.937,0.389,1.597,0.389c0.105,0,0.255-0.009,0.449-0.026c0.193-0.018,0.405-0.066,0.633-0.145
						c0.229-0.08,0.462-0.2,0.7-0.363c0.238-0.163,0.453-0.385,0.647-0.667c0.193-0.282,0.352-0.638,0.475-1.069
						c0.123-0.431,0.185-0.959,0.185-1.584c0-0.545-0.062-1.054-0.185-1.524s-0.31-0.878-0.561-1.221
						c-0.25-0.343-0.572-0.614-0.963-0.812c-0.392-0.198-0.852-0.297-1.379-0.297c-0.467,0-0.869,0.073-1.208,0.218
						c-0.339,0.146-0.623,0.333-0.852,0.561c-0.229,0.229-0.411,0.486-0.547,0.772c-0.137,0.286-0.24,0.572-0.311,0.858
						c-0.07,0.286-0.117,0.557-0.139,0.812S268.976,181.32,268.976,181.487z"/>
					<path fill="#FFFFFF" d="M281.767,179.956c-0.396,0.018-0.746,0.071-1.049,0.159s-0.563,0.224-0.779,0.409
						c-0.216,0.185-0.387,0.422-0.515,0.713c-0.127,0.29-0.205,0.646-0.231,1.069c-0.009,0.124-0.013,0.242-0.013,0.356
						c0,0.115,0,0.233,0,0.356v3.089h-1.162v-6.706h1.162v1.293h0.026c0.08-0.246,0.196-0.464,0.35-0.653
						c0.154-0.189,0.33-0.348,0.528-0.475c0.198-0.127,0.411-0.227,0.64-0.297s0.462-0.11,0.7-0.119l0.343-0.013V179.956z"/>
					<path fill="#FFFFFF" d="M288.472,176.867v9.24h-1.083v-0.924h-0.04c-0.053,0.105-0.132,0.229-0.238,0.37
						c-0.105,0.141-0.247,0.271-0.422,0.389c-0.176,0.119-0.392,0.22-0.646,0.304c-0.255,0.083-0.559,0.125-0.911,0.125
						c-0.493,0-0.928-0.088-1.307-0.264s-0.695-0.424-0.951-0.746c-0.255-0.321-0.451-0.704-0.587-1.148
						c-0.136-0.444-0.205-0.935-0.205-1.472c0-0.352,0.035-0.737,0.106-1.155c0.07-0.418,0.215-0.81,0.436-1.175
						c0.22-0.365,0.526-0.668,0.917-0.911c0.391-0.242,0.913-0.363,1.564-0.363c0.449,0,0.86,0.075,1.234,0.225
						s0.697,0.453,0.97,0.911v-3.406H288.472z M283.311,182.741c0,0.634,0.077,1.138,0.231,1.512
						c0.154,0.374,0.338,0.656,0.554,0.845c0.215,0.189,0.442,0.312,0.68,0.37c0.238,0.057,0.44,0.086,0.607,0.086
						c0.255,0,0.503-0.051,0.746-0.152s0.456-0.264,0.64-0.489c0.185-0.224,0.334-0.517,0.449-0.877
						c0.114-0.361,0.171-0.801,0.171-1.32c0-0.484-0.055-0.899-0.165-1.247c-0.11-0.348-0.262-0.634-0.456-0.858
						c-0.193-0.225-0.416-0.39-0.667-0.495c-0.25-0.106-0.513-0.159-0.785-0.159c-0.282,0-0.543,0.053-0.786,0.159
						c-0.242,0.105-0.453,0.271-0.633,0.495c-0.181,0.224-0.324,0.513-0.429,0.864C283.364,181.826,283.311,182.248,283.311,182.741
						z"/>
					<path fill="#FFFFFF" d="M296.313,184.167c-0.044,0.238-0.125,0.486-0.245,0.746c-0.119,0.26-0.29,0.498-0.515,0.713
						c-0.224,0.216-0.513,0.394-0.865,0.535s-0.788,0.211-1.307,0.211c-0.554,0-1.023-0.075-1.406-0.225s-0.7-0.341-0.95-0.574
						c-0.251-0.233-0.447-0.49-0.587-0.772c-0.141-0.282-0.245-0.555-0.311-0.818c-0.066-0.264-0.105-0.504-0.119-0.72
						c-0.013-0.215-0.02-0.376-0.02-0.481c0-0.15,0.009-0.346,0.027-0.587c0.017-0.242,0.061-0.497,0.132-0.766
						c0.07-0.269,0.176-0.539,0.317-0.812c0.141-0.272,0.332-0.519,0.574-0.739c0.242-0.22,0.543-0.398,0.904-0.535
						c0.361-0.136,0.801-0.205,1.32-0.205c0.668,0,1.203,0.117,1.604,0.35c0.4,0.233,0.708,0.526,0.924,0.877
						c0.215,0.352,0.36,0.737,0.436,1.155c0.075,0.418,0.121,0.808,0.139,1.168c0,0.053,0.002,0.108,0.006,0.165
						c0.004,0.058,0.007,0.112,0.007,0.165h-5.161c0,0.291,0.04,0.585,0.119,0.884c0.079,0.299,0.202,0.57,0.37,0.812
						c0.167,0.242,0.385,0.442,0.653,0.601s0.596,0.238,0.983,0.238c0.272,0,0.519-0.038,0.739-0.112
						c0.22-0.075,0.407-0.176,0.561-0.304c0.154-0.127,0.277-0.275,0.37-0.442c0.092-0.167,0.156-0.343,0.191-0.528H296.313z
						 M295.152,182.2c-0.009-0.22-0.04-0.462-0.093-0.726c-0.053-0.264-0.147-0.508-0.284-0.732
						c-0.137-0.225-0.323-0.411-0.561-0.561c-0.237-0.149-0.545-0.225-0.924-0.225c-0.422,0-0.77,0.077-1.043,0.231
						c-0.273,0.154-0.486,0.346-0.64,0.574c-0.154,0.229-0.257,0.473-0.31,0.733s-0.079,0.495-0.079,0.706H295.152z"/>
					<path fill="#FFFFFF" d="M301.646,179.956c-0.396,0.018-0.746,0.071-1.049,0.159s-0.563,0.224-0.779,0.409
						c-0.216,0.185-0.387,0.422-0.515,0.713c-0.127,0.29-0.205,0.646-0.231,1.069c-0.009,0.124-0.013,0.242-0.013,0.356
						c0,0.115,0,0.233,0,0.356v3.089h-1.162v-6.706h1.162v1.293h0.026c0.08-0.246,0.196-0.464,0.35-0.653
						c0.154-0.189,0.33-0.348,0.528-0.475c0.198-0.127,0.411-0.227,0.64-0.297s0.462-0.11,0.7-0.119l0.343-0.013V179.956z"/>
					<path fill="#FFFFFF" d="M307.255,178.345h-0.026l0.026,0.356v7.405h-1.241v-9.24h1.861l2.891,7.604l2.891-7.604h1.861v9.24
						h-1.241v-7.405l0.026-0.356h-0.04l-2.997,7.762h-1.003L307.255,178.345z"/>
					<path fill="#FFFFFF" d="M318.832,186.864c0.053,0.195,0.141,0.355,0.264,0.479c0.123,0.125,0.266,0.224,0.429,0.3
						c0.163,0.076,0.338,0.126,0.528,0.153c0.189,0.026,0.372,0.04,0.548,0.04c0.458,0,0.81-0.093,1.056-0.278
						c0.246-0.186,0.429-0.398,0.548-0.637c0.119-0.239,0.189-0.473,0.211-0.703s0.033-0.389,0.033-0.478v-0.729
						c-0.159,0.255-0.312,0.469-0.462,0.64c-0.15,0.172-0.311,0.311-0.482,0.416c-0.172,0.105-0.356,0.183-0.555,0.231
						c-0.198,0.048-0.42,0.073-0.667,0.073c-0.396,0-0.776-0.071-1.142-0.211s-0.687-0.358-0.964-0.653
						c-0.277-0.295-0.5-0.673-0.667-1.135s-0.25-1.019-0.25-1.67c0-0.105,0.004-0.266,0.013-0.481
						c0.008-0.216,0.04-0.456,0.092-0.72c0.053-0.264,0.139-0.535,0.257-0.812c0.119-0.277,0.286-0.533,0.501-0.766
						c0.216-0.233,0.489-0.422,0.818-0.568c0.33-0.145,0.737-0.218,1.221-0.218c0.554,0,1.027,0.102,1.419,0.304
						c0.392,0.203,0.693,0.497,0.904,0.884h0.04v-0.924h1.083v6.534c0,0.431-0.06,0.796-0.178,1.095
						c-0.119,0.299-0.271,0.55-0.456,0.752c-0.185,0.203-0.394,0.361-0.627,0.475c-0.233,0.114-0.46,0.203-0.68,0.264
						c-0.22,0.062-0.427,0.099-0.621,0.112s-0.343,0.02-0.449,0.02c-0.158,0-0.378-0.009-0.66-0.026
						c-0.282-0.018-0.57-0.082-0.864-0.191c-0.295-0.11-0.568-0.286-0.818-0.527c-0.251-0.241-0.429-0.59-0.535-1.047H318.832z
						 M320.548,185.553c0.105,0,0.268-0.029,0.488-0.086c0.22-0.057,0.44-0.185,0.66-0.383c0.22-0.198,0.414-0.486,0.581-0.865
						c0.167-0.378,0.251-0.893,0.251-1.544c0-0.845-0.176-1.509-0.528-1.993c-0.352-0.484-0.872-0.726-1.558-0.726
						c-0.326,0-0.601,0.055-0.825,0.165c-0.224,0.11-0.409,0.249-0.554,0.416c-0.146,0.167-0.255,0.356-0.33,0.567
						c-0.075,0.211-0.132,0.416-0.172,0.614c-0.04,0.198-0.062,0.383-0.066,0.555c-0.004,0.171-0.006,0.301-0.006,0.389
						c0,0.678,0.081,1.21,0.244,1.597c0.163,0.388,0.356,0.676,0.581,0.865c0.225,0.189,0.453,0.308,0.687,0.356
						C320.233,185.528,320.416,185.553,320.548,185.553z"/>
					<path fill="#FFFFFF" d="M325.933,179.401v-2.006h1.162v2.006h1.426v0.818h-1.426v4.264c0,0.123,0.002,0.24,0.007,0.35
						c0.004,0.11,0.026,0.209,0.066,0.297s0.108,0.156,0.205,0.205s0.238,0.072,0.422,0.072c0.123,0,0.247-0.011,0.37-0.033
						s0.242-0.051,0.356-0.086v0.818c-0.185,0.079-0.383,0.143-0.594,0.191c-0.211,0.048-0.418,0.073-0.621,0.073
						c-0.343,0-0.609-0.053-0.799-0.159c-0.189-0.105-0.326-0.24-0.409-0.402c-0.083-0.163-0.132-0.341-0.145-0.535
						c-0.013-0.193-0.02-0.378-0.02-0.555v-4.501h-1.201v-0.818H325.933z"/>
					<path fill="#FFFFFF" d="M277.081,199.787c-0.009,0.309,0.044,0.594,0.158,0.857s0.286,0.493,0.515,0.687
						c0.229,0.194,0.508,0.346,0.838,0.456c0.33,0.109,0.706,0.164,1.128,0.164c0.414,0,0.764-0.048,1.05-0.145
						c0.286-0.097,0.519-0.225,0.699-0.383c0.181-0.158,0.312-0.342,0.396-0.548s0.125-0.421,0.125-0.64
						c0-0.282-0.057-0.518-0.171-0.707c-0.115-0.189-0.26-0.343-0.436-0.462c-0.176-0.118-0.376-0.214-0.601-0.284
						c-0.225-0.07-0.442-0.127-0.654-0.171c-0.528-0.114-1.032-0.222-1.511-0.323s-0.902-0.244-1.267-0.43
						c-0.365-0.185-0.656-0.434-0.871-0.746c-0.216-0.312-0.324-0.732-0.324-1.26c0-0.432,0.083-0.814,0.251-1.148
						c0.167-0.334,0.405-0.612,0.713-0.832c0.308-0.22,0.677-0.387,1.109-0.501c0.431-0.114,0.906-0.171,1.425-0.171
						c0.572,0,1.067,0.072,1.485,0.218c0.417,0.145,0.765,0.341,1.042,0.587s0.488,0.532,0.634,0.858
						c0.145,0.326,0.231,0.664,0.257,1.017h-1.241c-0.044-0.378-0.156-0.678-0.337-0.897c-0.18-0.221-0.385-0.385-0.614-0.495
						s-0.462-0.178-0.699-0.205c-0.238-0.027-0.427-0.04-0.568-0.04c-0.643,0-1.16,0.139-1.551,0.416
						c-0.392,0.277-0.587,0.654-0.587,1.129c0,0.281,0.063,0.508,0.191,0.68c0.127,0.172,0.297,0.312,0.508,0.423
						c0.211,0.11,0.456,0.196,0.733,0.257c0.277,0.062,0.569,0.123,0.878,0.186c0.413,0.078,0.829,0.17,1.247,0.27
						c0.418,0.102,0.796,0.254,1.135,0.456s0.614,0.474,0.825,0.812c0.211,0.34,0.317,0.785,0.317,1.34
						c0,0.458-0.073,0.846-0.218,1.162c-0.145,0.316-0.332,0.578-0.561,0.785c-0.229,0.207-0.484,0.367-0.766,0.482
						c-0.282,0.113-0.557,0.197-0.825,0.25s-0.52,0.084-0.752,0.093c-0.233,0.009-0.412,0.013-0.535,0.013
						c-0.326,0-0.702-0.031-1.128-0.092c-0.427-0.062-0.834-0.2-1.221-0.416c-0.387-0.215-0.719-0.537-0.997-0.964
						s-0.434-1.005-0.468-1.735H277.081z"/>
					<path fill="#FFFFFF" d="M290.796,200.777c-0.044,0.237-0.125,0.486-0.245,0.745c-0.119,0.26-0.29,0.497-0.515,0.713
						c-0.224,0.216-0.513,0.394-0.865,0.534s-0.788,0.212-1.307,0.212c-0.554,0-1.023-0.075-1.406-0.225s-0.7-0.341-0.95-0.574
						c-0.251-0.233-0.447-0.49-0.587-0.772c-0.141-0.281-0.245-0.555-0.311-0.818s-0.105-0.504-0.119-0.719
						c-0.013-0.216-0.02-0.377-0.02-0.482c0-0.149,0.009-0.346,0.027-0.587c0.017-0.242,0.061-0.497,0.132-0.766
						c0.07-0.269,0.176-0.539,0.317-0.812c0.141-0.273,0.332-0.52,0.574-0.74c0.242-0.219,0.543-0.397,0.904-0.534
						c0.361-0.136,0.801-0.204,1.32-0.204c0.668,0,1.203,0.116,1.604,0.35c0.4,0.232,0.708,0.525,0.924,0.877
						c0.215,0.353,0.36,0.738,0.436,1.156c0.075,0.418,0.121,0.807,0.139,1.168c0,0.053,0.002,0.107,0.006,0.164
						c0.004,0.059,0.007,0.113,0.007,0.166h-5.161c0,0.29,0.04,0.585,0.119,0.884c0.079,0.3,0.202,0.569,0.37,0.812
						c0.167,0.242,0.385,0.443,0.653,0.602s0.596,0.237,0.983,0.237c0.272,0,0.519-0.038,0.739-0.112
						c0.22-0.074,0.407-0.176,0.561-0.304c0.154-0.128,0.277-0.274,0.37-0.442c0.092-0.167,0.156-0.343,0.191-0.527H290.796z
						 M289.634,198.81c-0.009-0.221-0.04-0.463-0.093-0.727s-0.147-0.508-0.284-0.732c-0.137-0.225-0.323-0.411-0.561-0.561
						c-0.237-0.15-0.545-0.225-0.924-0.225c-0.422,0-0.77,0.076-1.043,0.23s-0.486,0.346-0.64,0.574s-0.257,0.473-0.31,0.732
						s-0.079,0.496-0.079,0.707H289.634z"/>
					<path fill="#FFFFFF" d="M296.128,196.566c-0.396,0.018-0.746,0.07-1.049,0.158s-0.563,0.225-0.779,0.409
						c-0.216,0.185-0.387,0.423-0.515,0.713c-0.127,0.29-0.205,0.646-0.231,1.069c-0.009,0.123-0.013,0.242-0.013,0.355
						c0,0.115,0,0.234,0,0.357v3.088h-1.162v-6.705h1.162v1.293h0.026c0.08-0.246,0.196-0.463,0.35-0.652
						c0.154-0.189,0.33-0.348,0.528-0.476c0.198-0.128,0.411-0.227,0.64-0.297s0.462-0.11,0.7-0.119l0.343-0.013V196.566z"/>
					<path fill="#FFFFFF" d="M301.619,196.011h1.241l-2.481,6.705h-1.32l-2.481-6.705h1.241l1.901,5.544L301.619,196.011z"/>
					<path fill="#FFFFFF" d="M303.757,193.477h1.162v1.214h-1.162V193.477z M304.919,196.011v6.705h-1.162v-6.705H304.919z"/>
					<path fill="#FFFFFF" d="M312.601,200.328c-0.018,0.203-0.068,0.453-0.152,0.752c-0.083,0.3-0.229,0.59-0.436,0.871
						c-0.207,0.282-0.497,0.524-0.871,0.727s-0.86,0.304-1.458,0.304c-0.115,0-0.273-0.009-0.475-0.026
						c-0.203-0.018-0.427-0.062-0.673-0.133c-0.247-0.07-0.495-0.182-0.746-0.336c-0.25-0.154-0.477-0.365-0.68-0.634
						s-0.37-0.608-0.501-1.022s-0.198-0.92-0.198-1.519c0-0.388,0.044-0.792,0.132-1.214c0.088-0.423,0.25-0.808,0.488-1.155
						s0.563-0.634,0.977-0.858c0.413-0.225,0.946-0.336,1.597-0.336c0.475,0,0.889,0.063,1.241,0.191
						c0.352,0.127,0.646,0.301,0.884,0.521c0.238,0.22,0.424,0.471,0.561,0.752c0.136,0.281,0.222,0.58,0.257,0.897h-1.109
						c-0.062-0.37-0.171-0.659-0.33-0.871c-0.158-0.211-0.33-0.365-0.515-0.462c-0.185-0.097-0.368-0.156-0.548-0.178
						c-0.18-0.022-0.319-0.033-0.416-0.033c-0.361,0-0.669,0.072-0.924,0.217c-0.255,0.146-0.462,0.342-0.62,0.588
						c-0.159,0.246-0.273,0.537-0.343,0.871c-0.071,0.335-0.105,0.691-0.105,1.069s0.04,0.739,0.119,1.083
						c0.079,0.343,0.2,0.646,0.363,0.91c0.163,0.264,0.376,0.473,0.64,0.627c0.264,0.154,0.581,0.231,0.951,0.231
						c0.325,0,0.601-0.062,0.825-0.185c0.225-0.123,0.407-0.275,0.548-0.456s0.242-0.378,0.304-0.594s0.097-0.416,0.105-0.601
						H312.601z"/>
					<path fill="#FFFFFF" d="M319.967,200.777c-0.044,0.237-0.125,0.486-0.245,0.745c-0.119,0.26-0.29,0.497-0.515,0.713
						c-0.224,0.216-0.513,0.394-0.865,0.534s-0.788,0.212-1.307,0.212c-0.554,0-1.023-0.075-1.406-0.225s-0.7-0.341-0.95-0.574
						c-0.251-0.233-0.447-0.49-0.587-0.772c-0.141-0.281-0.245-0.555-0.311-0.818s-0.105-0.504-0.119-0.719
						c-0.013-0.216-0.02-0.377-0.02-0.482c0-0.149,0.009-0.346,0.027-0.587c0.017-0.242,0.061-0.497,0.132-0.766
						c0.07-0.269,0.176-0.539,0.317-0.812c0.141-0.273,0.332-0.52,0.574-0.74c0.242-0.219,0.543-0.397,0.904-0.534
						c0.361-0.136,0.801-0.204,1.32-0.204c0.668,0,1.203,0.116,1.604,0.35c0.4,0.232,0.708,0.525,0.924,0.877
						c0.215,0.353,0.36,0.738,0.436,1.156c0.075,0.418,0.121,0.807,0.139,1.168c0,0.053,0.002,0.107,0.006,0.164
						c0.004,0.059,0.007,0.113,0.007,0.166h-5.161c0,0.29,0.04,0.585,0.119,0.884c0.079,0.3,0.202,0.569,0.37,0.812
						c0.167,0.242,0.385,0.443,0.653,0.602s0.596,0.237,0.983,0.237c0.272,0,0.519-0.038,0.739-0.112
						c0.22-0.074,0.407-0.176,0.561-0.304c0.154-0.128,0.277-0.274,0.37-0.442c0.092-0.167,0.156-0.343,0.191-0.527H319.967z
						 M318.805,198.81c-0.009-0.221-0.04-0.463-0.093-0.727s-0.147-0.508-0.284-0.732c-0.137-0.225-0.323-0.411-0.561-0.561
						c-0.237-0.15-0.545-0.225-0.924-0.225c-0.422,0-0.77,0.076-1.043,0.23s-0.486,0.346-0.64,0.574s-0.257,0.473-0.31,0.732
						s-0.079,0.496-0.079,0.707H318.805z"/>
				</g>
			</g>
		</g>
	</g>
	<g>
		<g>
			<g>
				<g>
					<path fill="#585A5E" d="M447.978,185.085h-1.319l3.498-9.24h1.319l3.498,9.24h-1.319l-0.874-2.389h-3.928L447.978,185.085z
						 M452.435,181.653l-1.619-4.554l-1.618,4.554H452.435z"/>
					<path fill="#585A5E" d="M457.034,175.845v9.24h-1.161v-9.24H457.034z"/>
					<path fill="#585A5E" d="M464.875,183.145c-0.045,0.238-0.125,0.486-0.244,0.746c-0.119,0.26-0.291,0.498-0.516,0.713
						c-0.224,0.216-0.512,0.394-0.864,0.535s-0.788,0.211-1.307,0.211c-0.554,0-1.022-0.075-1.405-0.225s-0.7-0.341-0.951-0.574
						c-0.25-0.233-0.446-0.49-0.587-0.772c-0.142-0.282-0.245-0.555-0.311-0.818c-0.065-0.264-0.105-0.504-0.118-0.72
						c-0.014-0.215-0.021-0.376-0.021-0.481c0-0.15,0.009-0.346,0.026-0.587c0.018-0.242,0.062-0.497,0.133-0.766
						c0.07-0.269,0.176-0.539,0.316-0.812c0.141-0.272,0.332-0.519,0.574-0.739c0.242-0.22,0.543-0.398,0.904-0.535
						c0.36-0.136,0.801-0.205,1.32-0.205c0.668,0,1.203,0.117,1.604,0.35c0.4,0.233,0.708,0.526,0.924,0.877
						c0.215,0.352,0.36,0.737,0.436,1.155c0.074,0.418,0.121,0.808,0.139,1.168c0,0.053,0.002,0.108,0.006,0.165
						c0.005,0.058,0.008,0.112,0.008,0.165h-5.162c0,0.291,0.04,0.585,0.119,0.884c0.079,0.299,0.202,0.57,0.369,0.812
						c0.168,0.242,0.385,0.442,0.654,0.601c0.268,0.158,0.596,0.238,0.982,0.238c0.273,0,0.52-0.038,0.74-0.112
						c0.219-0.075,0.406-0.176,0.561-0.304s0.277-0.275,0.369-0.442c0.093-0.167,0.156-0.343,0.191-0.528H464.875z M463.712,181.178
						c-0.009-0.22-0.039-0.462-0.092-0.726c-0.053-0.264-0.148-0.508-0.284-0.732c-0.137-0.225-0.323-0.411-0.562-0.561
						c-0.236-0.149-0.545-0.225-0.924-0.225c-0.422,0-0.77,0.077-1.043,0.231c-0.272,0.154-0.486,0.346-0.64,0.574
						c-0.153,0.229-0.257,0.473-0.31,0.733s-0.08,0.495-0.08,0.706H463.712z"/>
					<path fill="#585A5E" d="M470.207,178.934c-0.396,0.018-0.745,0.071-1.049,0.159s-0.563,0.224-0.779,0.409
						c-0.215,0.185-0.387,0.422-0.515,0.713c-0.128,0.29-0.204,0.646-0.231,1.069c-0.008,0.124-0.013,0.242-0.013,0.356
						c0,0.115,0,0.233,0,0.356v3.089h-1.161v-6.706h1.161v1.293h0.026c0.08-0.246,0.195-0.464,0.35-0.653
						c0.154-0.189,0.33-0.348,0.528-0.475s0.411-0.227,0.64-0.297c0.229-0.07,0.463-0.11,0.7-0.119l0.343-0.013V178.934z"/>
					<path fill="#585A5E" d="M471.976,178.38v-2.006h1.161v2.006h1.426v0.818h-1.426v4.264c0,0.123,0.003,0.24,0.007,0.35
						c0.004,0.11,0.026,0.209,0.066,0.297c0.039,0.088,0.107,0.156,0.204,0.205s0.237,0.072,0.423,0.072
						c0.123,0,0.246-0.011,0.369-0.033s0.242-0.051,0.356-0.086v0.818c-0.185,0.079-0.383,0.143-0.594,0.191
						c-0.212,0.048-0.419,0.073-0.62,0.073c-0.344,0-0.609-0.053-0.799-0.159c-0.189-0.105-0.326-0.24-0.41-0.402
						c-0.083-0.163-0.131-0.341-0.145-0.535c-0.014-0.193-0.02-0.378-0.02-0.555v-4.501h-1.201v-0.818H471.976z"/>
					<path fill="#585A5E" d="M436.461,196.877v4.817h-0.964v-1.491h-0.026c-0.264,0.555-0.659,0.987-1.188,1.3
						c-0.527,0.312-1.156,0.469-1.887,0.469c-0.555,0-1.092-0.086-1.611-0.257c-0.519-0.172-0.98-0.453-1.385-0.845
						c-0.405-0.392-0.73-0.906-0.978-1.545c-0.246-0.638-0.369-1.419-0.369-2.343c0-0.783,0.105-1.474,0.316-2.072
						c0.212-0.599,0.515-1.1,0.911-1.505s0.871-0.71,1.426-0.917c0.555-0.207,1.174-0.31,1.861-0.31c0.615,0,1.15,0.085,1.604,0.257
						c0.453,0.171,0.832,0.398,1.135,0.68c0.304,0.282,0.539,0.603,0.707,0.964c0.166,0.361,0.271,0.731,0.316,1.108h-1.241
						c-0.018-0.211-0.07-0.433-0.158-0.666c-0.088-0.233-0.229-0.444-0.423-0.633c-0.193-0.189-0.451-0.348-0.771-0.476
						c-0.322-0.127-0.72-0.191-1.195-0.191c-0.483,0-0.899,0.071-1.247,0.211s-0.638,0.326-0.871,0.554
						c-0.233,0.229-0.421,0.484-0.562,0.765c-0.141,0.282-0.246,0.564-0.316,0.846s-0.117,0.547-0.139,0.799
						c-0.021,0.25-0.033,0.459-0.033,0.627c0,0.114,0.01,0.29,0.027,0.527c0.017,0.238,0.061,0.5,0.131,0.785
						c0.07,0.287,0.173,0.584,0.309,0.892s0.32,0.587,0.553,0.838c0.231,0.251,0.521,0.458,0.867,0.62
						c0.346,0.164,0.764,0.244,1.254,0.244c0.57,0,1.034-0.104,1.394-0.31c0.358-0.206,0.642-0.462,0.848-0.766
						s0.349-0.632,0.427-0.983c0.079-0.352,0.119-0.669,0.119-0.951h-2.614v-1.042H436.461z"/>
					<path fill="#585A5E" d="M444.118,199.755c-0.044,0.237-0.126,0.486-0.245,0.745c-0.118,0.26-0.289,0.497-0.514,0.713
						s-0.514,0.394-0.865,0.534s-0.787,0.212-1.307,0.212c-0.555,0-1.023-0.075-1.406-0.225s-0.699-0.341-0.949-0.574
						c-0.252-0.233-0.447-0.49-0.588-0.772c-0.141-0.281-0.244-0.555-0.311-0.818s-0.105-0.504-0.119-0.719
						c-0.013-0.216-0.02-0.377-0.02-0.482c0-0.149,0.009-0.346,0.027-0.587c0.017-0.242,0.061-0.497,0.131-0.766
						s0.176-0.539,0.317-0.812c0.141-0.273,0.332-0.52,0.574-0.74c0.241-0.219,0.543-0.397,0.903-0.534
						c0.361-0.136,0.801-0.204,1.32-0.204c0.669,0,1.203,0.116,1.604,0.35c0.4,0.232,0.709,0.525,0.925,0.877
						c0.216,0.353,0.36,0.738,0.436,1.156s0.12,0.807,0.139,1.168c0,0.053,0.002,0.107,0.007,0.164
						c0.004,0.059,0.006,0.113,0.006,0.166h-5.16c0,0.29,0.039,0.585,0.118,0.884c0.079,0.3,0.202,0.569,0.37,0.812
						c0.166,0.242,0.385,0.443,0.652,0.602c0.27,0.158,0.597,0.237,0.984,0.237c0.271,0,0.519-0.038,0.738-0.112
						c0.221-0.074,0.407-0.176,0.562-0.304c0.153-0.128,0.276-0.274,0.37-0.442c0.092-0.167,0.155-0.343,0.191-0.527H444.118z
						 M442.957,197.789c-0.01-0.221-0.041-0.463-0.094-0.727s-0.146-0.508-0.283-0.732s-0.323-0.411-0.561-0.561
						c-0.238-0.15-0.546-0.225-0.924-0.225c-0.423,0-0.771,0.076-1.043,0.23c-0.273,0.154-0.486,0.346-0.641,0.574
						s-0.258,0.473-0.311,0.732s-0.078,0.496-0.078,0.707H442.957z"/>
					<path fill="#585A5E" d="M446.863,194.99v0.938c0.229-0.334,0.537-0.619,0.924-0.852c0.388-0.233,0.846-0.35,1.373-0.35
						c0.439,0,0.803,0.068,1.089,0.204c0.286,0.137,0.511,0.319,0.673,0.548c0.163,0.229,0.277,0.495,0.344,0.799
						c0.066,0.303,0.1,0.623,0.1,0.957v4.461h-1.162v-4.104c0-0.177-0.007-0.383-0.02-0.62c-0.014-0.238-0.062-0.463-0.146-0.674
						c-0.084-0.211-0.222-0.389-0.416-0.535c-0.193-0.145-0.471-0.217-0.831-0.217c-0.158,0-0.348,0.025-0.568,0.079
						c-0.22,0.053-0.431,0.165-0.633,0.337c-0.203,0.171-0.375,0.422-0.516,0.752s-0.211,0.771-0.211,1.326v3.656h-1.162v-6.705
						H446.863z"/>
					<path fill="#585A5E" d="M459.205,199.755c-0.044,0.237-0.125,0.486-0.244,0.745c-0.119,0.26-0.29,0.497-0.515,0.713
						c-0.224,0.216-0.513,0.394-0.864,0.534c-0.353,0.141-0.788,0.212-1.307,0.212c-0.555,0-1.023-0.075-1.406-0.225
						s-0.699-0.341-0.95-0.574s-0.446-0.49-0.587-0.772c-0.142-0.281-0.245-0.555-0.311-0.818c-0.066-0.264-0.105-0.504-0.119-0.719
						c-0.014-0.216-0.02-0.377-0.02-0.482c0-0.149,0.008-0.346,0.026-0.587c0.017-0.242,0.062-0.497,0.132-0.766
						s0.176-0.539,0.316-0.812c0.141-0.273,0.332-0.52,0.574-0.74c0.242-0.219,0.543-0.397,0.904-0.534
						c0.361-0.136,0.801-0.204,1.32-0.204c0.668,0,1.203,0.116,1.604,0.35c0.4,0.232,0.709,0.525,0.924,0.877
						c0.216,0.353,0.361,0.738,0.436,1.156c0.075,0.418,0.121,0.807,0.139,1.168c0,0.053,0.002,0.107,0.007,0.164
						c0.005,0.059,0.007,0.113,0.007,0.166h-5.161c0,0.29,0.04,0.585,0.118,0.884c0.08,0.3,0.203,0.569,0.37,0.812
						s0.385,0.443,0.653,0.602s0.596,0.237,0.983,0.237c0.272,0,0.519-0.038,0.739-0.112c0.22-0.074,0.406-0.176,0.561-0.304
						s0.277-0.274,0.37-0.442c0.093-0.167,0.155-0.343,0.191-0.527H459.205z M458.043,197.789c-0.009-0.221-0.04-0.463-0.093-0.727
						s-0.147-0.508-0.283-0.732c-0.137-0.225-0.324-0.411-0.562-0.561c-0.237-0.15-0.546-0.225-0.924-0.225
						c-0.423,0-0.771,0.076-1.043,0.23s-0.486,0.346-0.64,0.574c-0.154,0.229-0.258,0.473-0.311,0.732s-0.079,0.496-0.079,0.707
						H458.043z"/>
					<path fill="#585A5E" d="M464.538,195.544c-0.396,0.018-0.745,0.07-1.05,0.158c-0.303,0.088-0.562,0.225-0.778,0.409
						s-0.388,0.423-0.515,0.713c-0.128,0.29-0.205,0.646-0.231,1.069c-0.009,0.123-0.013,0.242-0.013,0.355c0,0.115,0,0.234,0,0.357
						v3.088h-1.162v-6.705h1.162v1.293h0.025c0.08-0.246,0.196-0.463,0.351-0.652c0.153-0.189,0.33-0.348,0.528-0.476
						c0.197-0.128,0.41-0.227,0.64-0.297s0.462-0.11,0.7-0.119l0.343-0.013V195.544z"/>
					<path fill="#585A5E" d="M464.973,196.97c0-0.221,0.037-0.463,0.112-0.727c0.074-0.264,0.215-0.508,0.422-0.732
						s0.498-0.412,0.871-0.561c0.375-0.15,0.855-0.225,1.445-0.225c0.273,0,0.566,0.025,0.879,0.078
						c0.312,0.054,0.602,0.159,0.871,0.317c0.268,0.159,0.49,0.386,0.666,0.68c0.176,0.296,0.26,0.688,0.251,1.182l-0.065,3.103
						c0,0.131,0.002,0.248,0.006,0.35s0.029,0.185,0.072,0.25c0.045,0.066,0.115,0.117,0.211,0.152
						c0.098,0.035,0.234,0.049,0.41,0.039v0.818c-0.08,0.018-0.156,0.031-0.231,0.04s-0.174,0.013-0.297,0.013
						c-0.158,0-0.306-0.011-0.442-0.032c-0.137-0.022-0.255-0.066-0.355-0.132c-0.102-0.066-0.186-0.163-0.252-0.291
						c-0.065-0.127-0.116-0.301-0.151-0.521c-0.114,0.211-0.255,0.393-0.423,0.541c-0.167,0.15-0.352,0.273-0.554,0.37
						s-0.416,0.167-0.641,0.212c-0.224,0.043-0.45,0.065-0.68,0.065c-0.704,0-1.273-0.161-1.71-0.481
						c-0.436-0.322-0.652-0.834-0.652-1.538c0-0.29,0.043-0.552,0.132-0.786c0.088-0.232,0.255-0.439,0.501-0.62
						s0.581-0.329,1.004-0.448c0.422-0.119,0.973-0.209,1.65-0.271c0.246-0.018,0.453-0.035,0.619-0.053
						c0.168-0.018,0.302-0.055,0.403-0.111c0.101-0.058,0.173-0.144,0.218-0.258c0.044-0.114,0.066-0.281,0.066-0.502
						c0-0.078-0.01-0.193-0.027-0.343s-0.074-0.3-0.172-0.448c-0.096-0.15-0.246-0.279-0.448-0.391
						c-0.202-0.109-0.488-0.164-0.858-0.164c-0.105,0-0.257,0.009-0.455,0.025c-0.197,0.019-0.394,0.073-0.588,0.166
						c-0.193,0.092-0.36,0.232-0.501,0.422s-0.206,0.46-0.198,0.812H464.973z M469.33,198.263c-0.088,0.07-0.18,0.121-0.275,0.152
						s-0.201,0.055-0.314,0.072s-0.242,0.033-0.387,0.046s-0.308,0.033-0.49,0.06c-0.254,0.044-0.496,0.086-0.728,0.125
						c-0.231,0.04-0.435,0.102-0.608,0.186c-0.176,0.084-0.312,0.204-0.413,0.363c-0.101,0.158-0.151,0.369-0.151,0.633
						c0,0.396,0.121,0.702,0.361,0.918c0.24,0.215,0.547,0.323,0.923,0.323c0.228,0,0.456-0.033,0.688-0.099
						c0.231-0.066,0.445-0.186,0.642-0.357s0.36-0.406,0.491-0.705c0.131-0.3,0.21-0.683,0.235-1.148L469.33,198.263z"/>
					<path fill="#585A5E" d="M472.919,194.99v-2.006h1.161v2.006h1.426v0.818h-1.426v4.264c0,0.123,0.003,0.24,0.007,0.35
						c0.004,0.11,0.026,0.209,0.066,0.297c0.039,0.088,0.107,0.156,0.204,0.205s0.237,0.072,0.423,0.072
						c0.123,0,0.246-0.011,0.369-0.033c0.123-0.021,0.242-0.051,0.356-0.086v0.818c-0.185,0.08-0.383,0.144-0.594,0.191
						c-0.212,0.049-0.419,0.073-0.62,0.073c-0.344,0-0.609-0.053-0.799-0.159c-0.189-0.105-0.326-0.239-0.41-0.402
						c-0.083-0.162-0.131-0.34-0.145-0.534c-0.014-0.193-0.02-0.378-0.02-0.555v-4.501h-1.201v-0.818H472.919z"/>
					<path fill="#585A5E" d="M476.695,192.455h1.161v1.215h-1.161V192.455z M477.856,194.99v6.705h-1.161v-6.705H477.856z"/>
					<path fill="#585A5E" d="M479.347,198.342c0-0.448,0.057-0.889,0.172-1.319c0.114-0.432,0.301-0.816,0.561-1.155
						s0.602-0.614,1.023-0.825s0.938-0.316,1.545-0.316c0.606,0,1.121,0.105,1.544,0.316s0.763,0.486,1.022,0.825
						s0.447,0.724,0.562,1.155c0.114,0.431,0.171,0.871,0.171,1.319c0,0.449-0.057,0.89-0.171,1.32s-0.302,0.816-0.562,1.155
						c-0.26,0.338-0.6,0.613-1.022,0.824s-0.938,0.317-1.544,0.317c-0.607,0-1.123-0.106-1.545-0.317s-0.764-0.486-1.023-0.824
						c-0.26-0.339-0.446-0.725-0.561-1.155C479.404,199.232,479.347,198.792,479.347,198.342z M480.576,198.342
						c0,0.666,0.083,1.187,0.25,1.563s0.365,0.657,0.594,0.841c0.229,0.185,0.458,0.296,0.687,0.335
						c0.229,0.039,0.409,0.06,0.542,0.06c0.131,0,0.312-0.021,0.541-0.06c0.229-0.039,0.457-0.15,0.686-0.335
						c0.229-0.184,0.428-0.464,0.594-0.841c0.168-0.377,0.252-0.897,0.252-1.563c0-0.665-0.084-1.187-0.252-1.563
						c-0.166-0.377-0.365-0.656-0.594-0.84c-0.229-0.185-0.457-0.297-0.686-0.336c-0.229-0.039-0.41-0.059-0.541-0.059
						c-0.133,0-0.312,0.02-0.542,0.059c-0.229,0.039-0.458,0.151-0.687,0.336c-0.229,0.184-0.427,0.463-0.594,0.84
						S480.576,197.677,480.576,198.342z"/>
					<path fill="#585A5E" d="M488.626,194.99v0.938c0.229-0.334,0.537-0.619,0.925-0.852c0.388-0.233,0.845-0.35,1.372-0.35
						c0.44,0,0.804,0.068,1.09,0.204c0.285,0.137,0.51,0.319,0.673,0.548s0.277,0.495,0.343,0.799c0.066,0.303,0.1,0.623,0.1,0.957
						v4.461h-1.162v-4.104c0-0.177-0.006-0.383-0.02-0.62c-0.014-0.238-0.062-0.463-0.145-0.674
						c-0.084-0.211-0.223-0.389-0.416-0.535c-0.193-0.145-0.471-0.217-0.832-0.217c-0.158,0-0.348,0.025-0.567,0.079
						c-0.22,0.053-0.431,0.165-0.634,0.337c-0.203,0.171-0.374,0.422-0.515,0.752c-0.142,0.33-0.212,0.771-0.212,1.326v3.656h-1.161
						v-6.705H488.626z"/>
				</g>
			</g>
		</g>
	</g>
	<g>
		<g>
			<g>
				<g>
					<path fill="#585A5E" d="M187.995,179.212h-0.977v3.287h-1.373v-8.105h3.129c0.854,0,1.526,0.209,2.02,0.627
						c0.492,0.418,0.739,1.019,0.739,1.802c0,0.668-0.183,1.199-0.548,1.59s-0.874,0.64-1.525,0.746l2.35,3.34h-1.557
						L187.995,179.212z M187.018,175.582v2.482h1.729c0.448,0,0.798-0.112,1.049-0.337c0.251-0.224,0.376-0.525,0.376-0.904
						s-0.125-0.68-0.376-0.904c-0.251-0.225-0.601-0.337-1.049-0.337H187.018z"/>
					<path fill="#585A5E" d="M196.509,180.677h1.214c-0.105,0.599-0.372,1.074-0.799,1.426s-0.983,0.528-1.669,0.528
						c-0.818,0-1.485-0.281-2-0.845c-0.515-0.563-0.772-1.298-0.772-2.204c0-0.88,0.26-1.613,0.779-2.198
						c0.519-0.585,1.175-0.877,1.967-0.877c0.809,0,1.437,0.262,1.881,0.785c0.444,0.524,0.666,1.226,0.666,2.105v0.475h-3.999
						c0.018,0.511,0.16,0.913,0.429,1.208s0.618,0.442,1.05,0.442C195.95,181.522,196.368,181.24,196.509,180.677z M195.242,177.615
						c-0.369,0-0.68,0.112-0.931,0.336c-0.251,0.224-0.416,0.543-0.495,0.957h2.653c-0.009-0.378-0.119-0.688-0.33-0.931
						C195.928,177.736,195.628,177.615,195.242,177.615z"/>
					<path fill="#585A5E" d="M202.792,184.743v-2.746c-0.141,0.176-0.348,0.326-0.62,0.449c-0.273,0.123-0.563,0.185-0.872,0.185
						c-0.827,0-1.486-0.297-1.979-0.891c-0.493-0.594-0.739-1.318-0.739-2.171s0.246-1.578,0.739-2.171
						c0.493-0.594,1.152-0.891,1.979-0.891c0.309,0,0.599,0.062,0.872,0.185c0.272,0.124,0.479,0.273,0.62,0.449v-0.501h1.32v8.105
						H202.792z M202.792,180.677v-2.217c-0.114-0.229-0.286-0.416-0.515-0.561c-0.229-0.146-0.48-0.218-0.753-0.218
						c-0.501,0-0.897,0.176-1.188,0.528c-0.291,0.352-0.436,0.805-0.436,1.36c0,0.554,0.145,1.007,0.436,1.359
						c0.29,0.352,0.687,0.528,1.188,0.528c0.272,0,0.523-0.072,0.753-0.218C202.505,181.093,202.677,180.906,202.792,180.677z"/>
					<path fill="#585A5E" d="M210.62,176.638v5.861h-1.32v-0.554c-0.396,0.458-0.92,0.686-1.57,0.686
						c-0.651,0-1.157-0.198-1.519-0.594c-0.36-0.396-0.541-0.924-0.541-1.584v-3.815h1.32v3.59c0,0.801,0.364,1.201,1.096,1.201
						c0.29,0,0.547-0.085,0.771-0.257c0.225-0.171,0.372-0.398,0.442-0.68v-3.854H210.62z"/>
					<path fill="#585A5E" d="M215.874,180.677h1.214c-0.105,0.599-0.372,1.074-0.799,1.426s-0.983,0.528-1.669,0.528
						c-0.818,0-1.485-0.281-2-0.845c-0.515-0.563-0.772-1.298-0.772-2.204c0-0.88,0.26-1.613,0.779-2.198
						c0.519-0.585,1.175-0.877,1.967-0.877c0.809,0,1.437,0.262,1.881,0.785c0.444,0.524,0.666,1.226,0.666,2.105v0.475h-3.999
						c0.018,0.511,0.16,0.913,0.429,1.208s0.618,0.442,1.05,0.442C215.314,181.522,215.732,181.24,215.874,180.677z
						 M214.606,177.615c-0.369,0-0.68,0.112-0.931,0.336c-0.251,0.224-0.416,0.543-0.495,0.957h2.653
						c-0.009-0.378-0.119-0.688-0.33-0.931C215.292,177.736,214.993,177.615,214.606,177.615z"/>
					<path fill="#585A5E" d="M217.945,180.809h1.347c0.149,0.493,0.536,0.739,1.161,0.739c0.309,0,0.553-0.06,0.732-0.178
						c0.181-0.119,0.271-0.292,0.271-0.521c0-0.159-0.053-0.284-0.158-0.376c-0.105-0.092-0.281-0.169-0.527-0.231l-1.215-0.29
						c-0.968-0.229-1.452-0.766-1.452-1.611c0-0.528,0.209-0.965,0.627-1.313s0.948-0.521,1.591-0.521
						c0.669,0,1.201,0.152,1.598,0.455c0.396,0.304,0.646,0.729,0.752,1.274h-1.294c-0.132-0.431-0.488-0.646-1.068-0.646
						c-0.256,0-0.476,0.057-0.66,0.171c-0.186,0.114-0.277,0.282-0.277,0.501c0,0.255,0.202,0.436,0.607,0.542l1.24,0.29
						c1.003,0.238,1.505,0.792,1.505,1.664c0,0.572-0.213,1.027-0.64,1.366c-0.428,0.339-0.976,0.508-1.644,0.508
						c-0.687,0-1.252-0.163-1.696-0.488C218.299,181.817,218.033,181.372,217.945,180.809z"/>
					<path fill="#585A5E" d="M224.321,180.915v-3.181h-0.924v-1.096h0.924v-1.571h1.32v1.571h1.319v1.096h-1.319v3.036
						c0,0.458,0.232,0.686,0.699,0.686c0.281,0,0.532-0.079,0.752-0.237v1.201c-0.237,0.141-0.567,0.211-0.989,0.211
						c-0.546,0-0.979-0.145-1.301-0.436S224.321,181.478,224.321,180.915z"/>
				</g>
			</g>
		</g>
	</g>
	<g>
		<g>
			<g>
				<g>
					
						<line fill="none" stroke="#585A5E" stroke-width="1.1" stroke-miterlimit="10" x1="167.691" y1="189.583" x2="233.703" y2="189.583"/>
					<g>
						<polygon fill="#585A5E" points="232.884,192.379 237.729,189.583 232.884,186.786 						"/>
					</g>
				</g>
			</g>
			<g>
				<g>
					<g>
						<g>
							<path fill="#585A5E" d="M185.993,286.209l-0.854,0.474l1.595,2.875l-1.2,0.666l-3.933-7.087l2.735-1.519
								c0.747-0.414,1.437-0.558,2.07-0.432c0.634,0.127,1.142,0.532,1.521,1.217c0.325,0.584,0.423,1.137,0.293,1.656
								c-0.129,0.52-0.453,0.984-0.972,1.393l3.675,1.78l-1.361,0.755L185.993,286.209z M183.376,283.509l1.204,2.17l1.513-0.839
								c0.392-0.218,0.644-0.485,0.754-0.804c0.11-0.317,0.073-0.642-0.11-0.973s-0.438-0.534-0.768-0.607
								c-0.328-0.076-0.688-0.004-1.08,0.213L183.376,283.509z"/>
							<path fill="#585A5E" d="M194.148,283.359l1.062-0.589c0.198,0.575,0.195,1.119-0.007,1.634
								c-0.202,0.516-0.604,0.939-1.203,1.271c-0.716,0.397-1.435,0.475-2.159,0.232c-0.723-0.242-1.305-0.76-1.744-1.553
								c-0.427-0.77-0.556-1.536-0.385-2.3c0.169-0.764,0.601-1.337,1.294-1.722c0.707-0.393,1.383-0.469,2.025-0.227
								c0.642,0.243,1.177,0.748,1.604,1.518l0.23,0.416l-3.497,1.94c0.264,0.438,0.584,0.721,0.962,0.849
								c0.378,0.127,0.755,0.086,1.132-0.123C194.069,284.37,194.297,283.92,194.148,283.359z M191.554,281.296
								c-0.323,0.18-0.54,0.428-0.65,0.746c-0.111,0.317-0.101,0.677,0.031,1.077l2.32-1.287c-0.191-0.327-0.438-0.544-0.741-0.654
								C192.213,281.07,191.892,281.109,191.554,281.296z"/>
							<path fill="#585A5E" d="M201.614,283.866l-1.332-2.4c-0.037,0.222-0.146,0.453-0.324,0.692
								c-0.18,0.241-0.403,0.436-0.673,0.585c-0.724,0.401-1.444,0.462-2.163,0.182c-0.72-0.28-1.286-0.793-1.7-1.539
								c-0.414-0.747-0.55-1.499-0.407-2.258s0.575-1.338,1.299-1.739c0.27-0.15,0.553-0.237,0.852-0.262
								c0.298-0.025,0.552,0.006,0.76,0.091l-0.243-0.438l1.154-0.641l3.933,7.087L201.614,283.866z M199.641,280.311l-1.076-1.939
								c-0.211-0.145-0.451-0.225-0.723-0.241c-0.271-0.016-0.525,0.043-0.764,0.176c-0.438,0.242-0.699,0.589-0.781,1.038
								c-0.084,0.448,0.01,0.915,0.278,1.399c0.27,0.484,0.615,0.812,1.041,0.978c0.424,0.167,0.856,0.128,1.294-0.114
								c0.238-0.133,0.423-0.317,0.553-0.557C199.593,280.813,199.653,280.566,199.641,280.311z"/>
							<path fill="#585A5E" d="M204.526,272.98l2.844,5.125l-1.154,0.641l-0.269-0.484c-0.124,0.592-0.472,1.046-1.04,1.361
								c-0.57,0.316-1.108,0.389-1.616,0.219c-0.507-0.172-0.921-0.547-1.241-1.123l-1.852-3.336l1.154-0.641l1.742,3.14
								c0.389,0.7,0.901,0.873,1.541,0.519c0.254-0.141,0.437-0.34,0.55-0.6c0.113-0.259,0.132-0.528,0.058-0.809l-1.871-3.37
								L204.526,272.98z"/>
							<path fill="#585A5E" d="M211.08,273.962l1.062-0.588c0.198,0.574,0.195,1.118-0.006,1.634
								c-0.203,0.515-0.604,0.938-1.204,1.271c-0.715,0.397-1.435,0.475-2.158,0.232s-1.306-0.76-1.745-1.553
								c-0.427-0.769-0.556-1.536-0.385-2.3c0.169-0.764,0.602-1.337,1.294-1.722c0.707-0.393,1.383-0.469,2.025-0.227
								c0.643,0.243,1.177,0.749,1.604,1.519l0.23,0.415l-3.498,1.94c0.264,0.438,0.584,0.721,0.962,0.849
								c0.378,0.127,0.755,0.086,1.132-0.123C211,274.973,211.229,274.525,211.08,273.962z M208.486,271.9
								c-0.323,0.18-0.54,0.428-0.65,0.746s-0.101,0.678,0.031,1.077l2.32-1.287c-0.191-0.327-0.438-0.544-0.74-0.653
								S208.824,271.712,208.486,271.9z"/>
							<path fill="#585A5E" d="M212.956,273.073l1.177-0.653c0.37,0.359,0.828,0.387,1.374,0.083
								c0.271-0.149,0.455-0.319,0.555-0.511s0.094-0.387-0.018-0.588c-0.076-0.139-0.184-0.223-0.32-0.252
								s-0.328-0.011-0.573,0.055l-1.203,0.335c-0.957,0.27-1.641,0.035-2.051-0.703c-0.257-0.462-0.286-0.946-0.089-1.453
								c0.196-0.507,0.576-0.915,1.138-1.228c0.585-0.324,1.124-0.45,1.617-0.377c0.494,0.073,0.919,0.323,1.276,0.749l-1.132,0.628
								c-0.324-0.313-0.741-0.329-1.247-0.047c-0.225,0.124-0.389,0.28-0.495,0.47c-0.106,0.19-0.105,0.381,0.001,0.573
								c0.124,0.223,0.389,0.283,0.794,0.179l1.226-0.349c0.992-0.278,1.699-0.037,2.123,0.725c0.277,0.5,0.312,1.002,0.104,1.506
								c-0.21,0.503-0.606,0.917-1.19,1.24c-0.601,0.334-1.174,0.466-1.721,0.396C213.754,273.783,213.305,273.523,212.956,273.073z
								"/>
							<path fill="#585A5E" d="M218.582,270.072l-1.544-2.781l-0.808,0.448l-0.531-0.958l0.808-0.448l-0.763-1.374l1.155-0.641
								l0.762,1.374l1.153-0.641l0.532,0.958l-1.154,0.641l1.474,2.654c0.222,0.4,0.536,0.487,0.944,0.261
								c0.246-0.137,0.427-0.327,0.542-0.573l0.583,1.051c-0.139,0.238-0.394,0.46-0.763,0.665c-0.478,0.265-0.927,0.348-1.349,0.25
								S218.855,270.564,218.582,270.072z"/>
						</g>
					</g>
				</g>
			</g>
			<g>
				<g>
					
						<line fill="none" stroke="#585A5E" stroke-width="1.1" stroke-miterlimit="10" x1="167.691" y1="287.73" x2="234.295" y2="246.949"/>
					<g>
						<polygon fill="#585A5E" points="235.058,249.761 237.729,244.846 232.136,244.99 						"/>
					</g>
				</g>
			</g>
			<g>
				<g>
					<g>
						<g>
							<path fill="#585A5E" d="M189.319,94.7l-0.779-0.588l-1.981,2.621l-1.096-0.828l4.887-6.465l2.496,1.887
								c0.681,0.514,1.091,1.087,1.233,1.717c0.141,0.631-0.024,1.26-0.497,1.885c-0.403,0.533-0.869,0.846-1.396,0.938
								c-0.528,0.092-1.083-0.016-1.667-0.324l-0.139,4.08l-1.242-0.938L189.319,94.7z M190.729,91.216l-1.497,1.98l1.379,1.042
								c0.358,0.271,0.704,0.392,1.04,0.364c0.335-0.027,0.617-0.193,0.845-0.494c0.228-0.303,0.311-0.618,0.246-0.949
								c-0.065-0.33-0.276-0.631-0.634-0.9L190.729,91.216z"/>
							<path fill="#585A5E" d="M195.229,101.003l0.969,0.732c-0.446,0.414-0.944,0.633-1.497,0.656
								c-0.553,0.023-1.103-0.173-1.65-0.586c-0.653-0.494-1.016-1.119-1.086-1.88c-0.071-0.759,0.167-1.501,0.713-2.224
								c0.531-0.702,1.18-1.131,1.947-1.283c0.767-0.154,1.466,0.008,2.098,0.484c0.645,0.488,0.988,1.076,1.027,1.762
								c0.039,0.686-0.208,1.379-0.738,2.08l-0.287,0.379l-3.19-2.41c-0.294,0.418-0.423,0.824-0.386,1.222
								c0.036,0.397,0.227,0.726,0.571,0.986C194.272,101.341,194.776,101.367,195.229,101.003z M196.063,97.796
								c-0.294-0.223-0.609-0.32-0.945-0.292c-0.335,0.027-0.66,0.183-0.972,0.464l2.117,1.601c0.221-0.308,0.32-0.621,0.298-0.941
								C196.538,98.308,196.372,98.03,196.063,97.796z"/>
							<path fill="#585A5E" d="M197.789,108.035l1.655-2.19c-0.218,0.055-0.474,0.051-0.765-0.016
								c-0.292-0.066-0.561-0.193-0.807-0.379c-0.66-0.499-1.007-1.133-1.042-1.904c-0.035-0.771,0.205-1.497,0.72-2.178
								c0.515-0.682,1.148-1.11,1.899-1.287c0.752-0.176,1.457-0.016,2.117,0.482c0.246,0.188,0.44,0.411,0.584,0.674
								c0.143,0.264,0.218,0.507,0.224,0.732l0.302-0.4l1.054,0.797l-4.887,6.465L197.789,108.035z M200.24,104.792l1.337-1.77
								c0.047-0.252,0.022-0.504-0.072-0.758c-0.095-0.254-0.252-0.463-0.47-0.627c-0.399-0.303-0.822-0.401-1.265-0.296
								c-0.444,0.105-0.833,0.38-1.167,0.823c-0.334,0.441-0.492,0.891-0.472,1.346c0.019,0.457,0.229,0.836,0.629,1.138
								c0.218,0.164,0.461,0.258,0.732,0.28C199.761,104.95,200.011,104.905,200.24,104.792z"/>
							<path fill="#585A5E" d="M208.92,106.29l-3.534,4.675l-1.053-0.796l0.334-0.441c-0.591,0.125-1.147-0.008-1.667-0.4
								c-0.52-0.393-0.804-0.855-0.854-1.39c-0.048-0.533,0.126-1.063,0.523-1.59l2.3-3.043l1.054,0.796l-2.165,2.865
								c-0.483,0.639-0.434,1.177,0.149,1.618c0.231,0.175,0.488,0.261,0.771,0.26s0.537-0.093,0.763-0.275l2.324-3.075
								L208.92,106.29z"/>
							<path fill="#585A5E" d="M210.677,112.68l0.968,0.731c-0.445,0.414-0.944,0.633-1.497,0.656s-1.103-0.172-1.65-0.586
								c-0.653-0.493-1.015-1.119-1.086-1.879c-0.071-0.76,0.167-1.502,0.713-2.225c0.531-0.701,1.18-1.13,1.947-1.283
								c0.766-0.154,1.466,0.008,2.098,0.485c0.645,0.487,0.988,1.075,1.027,1.761c0.039,0.686-0.208,1.379-0.738,2.081
								l-0.287,0.379l-3.19-2.411c-0.294,0.418-0.423,0.825-0.387,1.223c0.037,0.396,0.227,0.726,0.571,0.986
								C209.721,113.017,210.224,113.044,210.677,112.68z M211.512,109.473c-0.294-0.223-0.609-0.321-0.945-0.293
								c-0.335,0.027-0.66,0.183-0.972,0.465l2.117,1.601c0.221-0.308,0.32-0.622,0.297-0.941
								C211.986,109.983,211.82,109.706,211.512,109.473z"/>
							<path fill="#585A5E" d="M212.249,114.034l1.074,0.812c-0.177,0.482-0.018,0.912,0.48,1.289
								c0.247,0.187,0.478,0.285,0.692,0.299c0.216,0.015,0.393-0.069,0.53-0.252c0.096-0.127,0.129-0.258,0.101-0.396
								c-0.029-0.137-0.123-0.304-0.282-0.502l-0.794-0.964c-0.634-0.767-0.697-1.486-0.187-2.161
								c0.318-0.42,0.749-0.644,1.292-0.669c0.543-0.024,1.071,0.155,1.583,0.544c0.534,0.402,0.867,0.845,1,1.326
								c0.133,0.48,0.077,0.971-0.168,1.469l-1.032-0.779c0.154-0.424,0-0.811-0.463-1.16c-0.204-0.154-0.414-0.241-0.629-0.262
								c-0.217-0.021-0.391,0.059-0.524,0.233c-0.154,0.204-0.101,0.47,0.158,0.798l0.814,0.979c0.657,0.794,0.723,1.54,0.197,2.235
								c-0.345,0.455-0.789,0.69-1.334,0.703c-0.545,0.012-1.084-0.184-1.617-0.586c-0.548-0.414-0.901-0.885-1.059-1.412
								S211.98,114.536,212.249,114.034z"/>
							<path fill="#585A5E" d="M217.272,117.962l1.918-2.537l-0.737-0.557l0.661-0.874l0.737,0.557l0.947-1.253l1.054,0.796
								l-0.947,1.253l1.052,0.796l-0.661,0.874l-1.052-0.795l-1.831,2.422c-0.276,0.365-0.229,0.688,0.144,0.969
								c0.224,0.17,0.472,0.258,0.743,0.264l-0.724,0.959c-0.274-0.031-0.58-0.175-0.917-0.43c-0.436-0.328-0.694-0.705-0.775-1.131
								S216.932,118.412,217.272,117.962z"/>
						</g>
					</g>
				</g>
			</g>
			<g>
				<g>
					
						<line fill="none" stroke="#585A5E" stroke-width="1.1" stroke-miterlimit="10" x1="167.691" y1="88.432" x2="234.524" y2="139.254"/>
					<g>
						<polygon fill="#585A5E" points="232.179,140.986 237.729,141.691 235.566,136.532 						"/>
					</g>
				</g>
			</g>
			<g>
				<g>
					
						<line fill="none" stroke="#585A5E" stroke-width="1.1" stroke-miterlimit="10" x1="358.595" y1="189.583" x2="396.949" y2="189.583"/>
					<g>
						<polygon fill="#585A5E" points="396.129,192.379 400.974,189.583 396.129,186.786 						"/>
					</g>
				</g>
			</g>
			<g>
				<g>
					<path fill="#585A5E" d="M545.396,174.394h1.32l3.115,8.105h-1.399l-0.831-2.244h-3.103l-0.831,2.244h-1.387L545.396,174.394z
						 M546.043,176.07l-1.109,2.996h2.218L546.043,176.07z"/>
					<path fill="#585A5E" d="M552.234,173.918v8.58h-1.32v-8.58H552.234z"/>
					<path fill="#585A5E" d="M557.488,180.677h1.214c-0.105,0.599-0.372,1.074-0.799,1.426s-0.983,0.528-1.669,0.528
						c-0.818,0-1.485-0.281-2-0.845c-0.515-0.563-0.772-1.298-0.772-2.204c0-0.88,0.26-1.613,0.779-2.198
						c0.519-0.585,1.175-0.877,1.967-0.877c0.809,0,1.437,0.262,1.881,0.785c0.444,0.524,0.666,1.226,0.666,2.105v0.475h-3.999
						c0.018,0.511,0.16,0.913,0.429,1.208s0.618,0.442,1.05,0.442C556.928,181.522,557.346,181.24,557.488,180.677z M556.22,177.615
						c-0.369,0-0.68,0.112-0.931,0.336c-0.251,0.224-0.416,0.543-0.495,0.957h2.653c-0.009-0.378-0.119-0.688-0.33-0.931
						C556.907,177.736,556.607,177.615,556.22,177.615z"/>
					<path fill="#585A5E" d="M563.243,176.611v1.359c-0.185-0.132-0.444-0.198-0.778-0.198c-0.282,0-0.533,0.082-0.753,0.244
						c-0.22,0.163-0.36,0.394-0.422,0.693v3.789h-1.32v-5.861h1.32v0.607c0.114-0.22,0.29-0.398,0.527-0.535
						c0.238-0.136,0.497-0.205,0.779-0.205C562.904,176.506,563.12,176.541,563.243,176.611z"/>
					<path fill="#585A5E" d="M564.76,180.915v-3.181h-0.924v-1.096h0.924v-1.571h1.32v1.571h1.319v1.096h-1.319v3.036
						c0,0.458,0.232,0.686,0.699,0.686c0.281,0,0.532-0.079,0.752-0.237v1.201c-0.237,0.141-0.567,0.211-0.989,0.211
						c-0.546,0-0.979-0.145-1.301-0.436S564.76,181.478,564.76,180.915z"/>
				</g>
			</g>
			<g>
				<g>
					
						<line fill="none" stroke="#585A5E" stroke-width="1.1" stroke-miterlimit="10" x1="520.838" y1="189.583" x2="582.226" y2="189.583"/>
					<g>
						<polygon fill="#585A5E" points="581.408,192.379 586.252,189.583 581.408,186.786 						"/>
					</g>
				</g>
			</g>
		</g>
	</g>
	<g>
		<g>
			<g>
				<g>
					<path fill="#585A5E" d="M122.364,228.933h1.027v7.982h-1.027v-3.641h-4.511v3.641h-1.027v-7.982h1.027v3.418h4.511V228.933z"/>
					<path fill="#585A5E" d="M129.364,231.865c0.49,0.559,0.734,1.281,0.734,2.164c0,0.885-0.245,1.605-0.734,2.164
						c-0.49,0.561-1.129,0.84-1.917,0.84s-1.428-0.279-1.917-0.84c-0.49-0.559-0.734-1.279-0.734-2.164
						c0-0.883,0.245-1.605,0.734-2.164s1.129-0.838,1.917-0.838S128.875,231.306,129.364,231.865z M128.662,235.583
						c0.299-0.395,0.449-0.912,0.449-1.555c0-0.641-0.149-1.158-0.449-1.553c-0.299-0.395-0.704-0.592-1.215-0.592
						s-0.917,0.197-1.215,0.592c-0.299,0.395-0.449,0.912-0.449,1.553c0,0.643,0.149,1.16,0.449,1.555
						c0.299,0.393,0.704,0.59,1.215,0.59S128.363,235.976,128.662,235.583z"/>
					<path fill="#585A5E" d="M130.944,235.33h1.014c0.182,0.59,0.637,0.883,1.365,0.883c0.355,0,0.641-0.07,0.858-0.213
						c0.217-0.145,0.325-0.359,0.325-0.645c0-0.391-0.286-0.658-0.858-0.807l-1.144-0.299c-0.928-0.234-1.391-0.74-1.391-1.52
						c0-0.504,0.195-0.912,0.585-1.229s0.884-0.475,1.482-0.475c0.624,0,1.126,0.143,1.508,0.428
						c0.381,0.287,0.624,0.689,0.728,1.209h-0.975c-0.174-0.545-0.598-0.818-1.274-0.818c-0.303,0-0.563,0.072-0.78,0.215
						c-0.217,0.143-0.325,0.348-0.325,0.617c0,0.191,0.063,0.34,0.188,0.449c0.126,0.107,0.332,0.201,0.618,0.279l1.118,0.271
						c0.979,0.262,1.469,0.799,1.469,1.613c0,0.537-0.199,0.961-0.598,1.273c-0.399,0.312-0.915,0.469-1.547,0.469
						s-1.164-0.152-1.592-0.455C131.288,236.273,131.03,235.857,130.944,235.33z"/>
					<path fill="#585A5E" d="M137.08,235.458v-3.484h-0.936v-0.832h0.936v-1.52h0.975v1.52h1.391v0.832h-1.391v3.381
						c0,0.537,0.255,0.807,0.767,0.807c0.268,0,0.52-0.078,0.754-0.234v0.91c-0.243,0.129-0.546,0.195-0.91,0.195
						c-0.485,0-0.871-0.133-1.157-0.396C137.223,236.371,137.08,235.98,137.08,235.458z"/>
					<path fill="#585A5E" d="M147.362,231.078c0-0.406-0.13-0.734-0.39-0.98c-0.26-0.248-0.611-0.371-1.053-0.371
						c-0.468,0-0.834,0.145-1.099,0.436c-0.265,0.291-0.418,0.678-0.461,1.164h-1.053c0.078-0.754,0.351-1.361,0.819-1.82
						c0.468-0.459,1.066-0.689,1.794-0.689c0.754,0,1.347,0.203,1.781,0.611c0.433,0.408,0.65,0.953,0.65,1.639
						c0,0.121-0.015,0.246-0.045,0.377c-0.03,0.129-0.061,0.242-0.091,0.338c-0.031,0.096-0.087,0.213-0.169,0.357
						c-0.083,0.143-0.146,0.248-0.189,0.318c-0.043,0.068-0.13,0.182-0.26,0.338s-0.217,0.26-0.26,0.312
						c-0.043,0.051-0.146,0.166-0.306,0.344c-0.161,0.178-0.258,0.289-0.292,0.332l-2.028,2.223h3.809v0.91h-5.213v-0.676
						l2.574-2.834c0.39-0.434,0.654-0.729,0.793-0.885c0.138-0.156,0.288-0.377,0.448-0.662
						C147.282,231.572,147.362,231.312,147.362,231.078z"/>
				</g>
			</g>
			<g id="hVCAm4_15_">
				<g>
					<path fill-rule="evenodd" clip-rule="evenodd" fill="#585A5E" d="M109.927,210.708c0.151-0.213,0.443-0.432,0.436-0.639
						c-0.25-5.545,2.992-7.986,7.875-9.254c1.987-0.516,3.899-1.516,5.688-2.564c4.67-2.734,5.23-4.906,2.691-9.549
						c-2.778-5.08-2.293-10.461-1.207-15.787c0.247-1.215,1.588-2.463,2.744-3.186c3.265-2.043,9.669-1.34,12.621,1.115
						c2.58,2.146,2.085,5.188,2.549,8.023c0.731,4.471-0.407,8.445-2.451,12.293c-1.134,2.133-0.485,3.904,1.199,5.307
						c1.24,1.031,2.628,1.928,4.06,2.672c1.442,0.752,2.972,1.445,4.547,1.814c4.621,1.084,7.543,3.559,7.78,8.582
						c0.029,0.584,0.438,1.146,0.671,1.719c0,0.363,0,0.73,0,1.094c-13.099,12.721-33.543,14.994-49.202,0
						C109.927,211.802,109.927,211.255,109.927,210.708z"/>
				</g>
			</g>
		</g>
		<path fill="none" stroke="#585A5E" stroke-width="1.363" stroke-miterlimit="10" d="M168.205,188.677
			c0,9.076-3.535,17.328-9.304,23.451c-6.239,6.621-15.087,10.756-24.902,10.756c-9.445,0-17.998-3.83-24.188-10.02
			c-6.19-6.189-10.019-14.742-10.019-24.188c0-18.893,15.313-34.205,34.206-34.205S168.205,169.785,168.205,188.677z"/>
	</g>
	<g>
		<g>
			<g>
				<g>
					<path fill="#585A5E" d="M587.652,228.933h0.961l3.121,7.982h-1.041l-0.922-2.406h-3.289l-0.91,2.406h-1.041L587.652,228.933z
						 M588.119,230.207l-1.299,3.406h2.6L588.119,230.207z"/>
					<path fill="#585A5E" d="M595.945,233.716h-1.963v3.199h-1.026v-7.982h2.989c0.824,0,1.467,0.205,1.932,0.617
						c0.463,0.412,0.695,1.004,0.695,1.775s-0.234,1.363-0.703,1.773C597.402,233.511,596.759,233.716,595.945,233.716z
						 M597.557,231.326c0-0.469-0.141-0.834-0.423-1.1c-0.281-0.264-0.687-0.396-1.215-0.396h-1.938v2.977h1.938
						c0.528,0,0.934-0.131,1.215-0.396C597.417,232.146,597.557,231.785,597.557,231.326z"/>
					<path fill="#585A5E" d="M600.962,228.933v7.982h-1.026v-7.982H600.962z"/>
					<path fill="#585A5E" d="M605.734,236.916v-7.982h2.561c1.17,0,2.108,0.361,2.814,1.086c0.707,0.723,1.06,1.691,1.06,2.904
						c0,1.215-0.353,2.184-1.06,2.906c-0.706,0.725-1.645,1.086-2.814,1.086H605.734z M606.761,235.992h1.521
						c0.901,0,1.605-0.275,2.112-0.824c0.508-0.551,0.761-1.299,0.761-2.244c0-0.943-0.256-1.693-0.767-2.248
						c-0.512-0.555-1.214-0.832-2.106-0.832h-1.521V235.992z"/>
					<path fill="#585A5E" d="M617.162,235.187h0.922c-0.104,0.562-0.359,1.012-0.767,1.344c-0.407,0.334-0.927,0.502-1.56,0.502
						c-0.789,0-1.428-0.275-1.918-0.826s-0.734-1.271-0.734-2.164c0-0.875,0.242-1.598,0.729-2.164
						c0.484-0.568,1.117-0.852,1.897-0.852c0.771,0,1.369,0.258,1.794,0.773c0.424,0.516,0.637,1.201,0.637,2.061v0.35h-4.082
						c0.009,0.607,0.167,1.09,0.475,1.449c0.308,0.361,0.709,0.541,1.203,0.541c0.363,0,0.669-0.09,0.916-0.268
						S617.083,235.507,617.162,235.187z M615.744,231.859c-0.434,0-0.797,0.143-1.092,0.428c-0.295,0.287-0.477,0.682-0.546,1.184
						h3.067c-0.008-0.459-0.134-0.844-0.377-1.15C616.554,232.011,616.203,231.859,615.744,231.859z"/>
					<path fill="#585A5E" d="M621.958,236.916h-0.963l-2.236-5.773h1.054l1.69,4.537l1.676-4.537h1.027L621.958,236.916z"/>
					<path fill="#585A5E" d="M628.952,235.187h0.923c-0.104,0.562-0.359,1.012-0.768,1.344c-0.406,0.334-0.927,0.502-1.56,0.502
						c-0.788,0-1.428-0.275-1.917-0.826c-0.49-0.551-0.734-1.271-0.734-2.164c0-0.875,0.242-1.598,0.728-2.164
						c0.485-0.568,1.118-0.852,1.897-0.852c0.771,0,1.369,0.258,1.795,0.773c0.424,0.516,0.637,1.201,0.637,2.061v0.35h-4.082
						c0.008,0.607,0.166,1.09,0.475,1.449c0.307,0.361,0.708,0.541,1.202,0.541c0.364,0,0.669-0.09,0.917-0.268
						C628.71,235.755,628.874,235.507,628.952,235.187z M627.535,231.859c-0.434,0-0.798,0.143-1.092,0.428
						c-0.295,0.287-0.477,0.682-0.547,1.184h3.068c-0.009-0.459-0.135-0.844-0.377-1.15
						C628.345,232.011,627.994,231.859,627.535,231.859z"/>
					<path fill="#585A5E" d="M632.228,228.464v8.451h-0.976v-8.451H632.228z"/>
					<path fill="#585A5E" d="M638.123,231.865c0.49,0.559,0.734,1.281,0.734,2.164c0,0.885-0.244,1.605-0.734,2.164
						c-0.49,0.561-1.129,0.84-1.918,0.84c-0.788,0-1.428-0.279-1.917-0.84c-0.489-0.559-0.734-1.279-0.734-2.164
						c0-0.883,0.245-1.605,0.734-2.164s1.129-0.838,1.917-0.838C636.994,231.027,637.632,231.306,638.123,231.865z M637.42,235.583
						c0.3-0.395,0.448-0.912,0.448-1.555c0-0.641-0.148-1.158-0.448-1.553c-0.299-0.395-0.704-0.592-1.216-0.592
						c-0.511,0-0.916,0.197-1.215,0.592s-0.449,0.912-0.449,1.553c0,0.643,0.15,1.16,0.449,1.555c0.299,0.393,0.704,0.59,1.215,0.59
						C636.716,236.173,637.122,235.976,637.42,235.583z"/>
					<path fill="#585A5E" d="M641.159,236.24v2.885h-0.976v-7.982h0.976v0.678c0.165-0.227,0.392-0.414,0.683-0.566
						c0.29-0.152,0.604-0.227,0.942-0.227c0.814,0,1.451,0.287,1.911,0.863c0.459,0.576,0.688,1.289,0.688,2.139
						s-0.229,1.562-0.688,2.139c-0.46,0.576-1.097,0.865-1.911,0.865c-0.339,0-0.652-0.076-0.942-0.229
						C641.55,236.654,641.324,236.464,641.159,236.24z M641.159,232.859v2.34c0.147,0.295,0.353,0.527,0.617,0.695
						c0.265,0.17,0.553,0.254,0.864,0.254c0.537,0,0.965-0.197,1.281-0.592s0.475-0.902,0.475-1.527
						c0-0.623-0.158-1.133-0.475-1.527s-0.744-0.592-1.281-0.592c-0.312,0-0.6,0.084-0.864,0.254S641.306,232.564,641.159,232.859z"
						/>
					<path fill="#585A5E" d="M650.349,235.187h0.924c-0.104,0.562-0.36,1.012-0.768,1.344c-0.407,0.334-0.928,0.502-1.561,0.502
						c-0.788,0-1.428-0.275-1.917-0.826s-0.734-1.271-0.734-2.164c0-0.875,0.243-1.598,0.728-2.164
						c0.486-0.568,1.118-0.852,1.898-0.852c0.771,0,1.369,0.258,1.794,0.773s0.638,1.201,0.638,2.061v0.35h-4.082
						c0.008,0.607,0.166,1.09,0.474,1.449c0.308,0.361,0.708,0.541,1.202,0.541c0.365,0,0.67-0.09,0.917-0.268
						S650.271,235.507,650.349,235.187z M648.933,231.859c-0.434,0-0.799,0.143-1.093,0.428c-0.295,0.287-0.477,0.682-0.546,1.184
						h3.068c-0.01-0.459-0.135-0.844-0.377-1.15C649.743,232.011,649.392,231.859,648.933,231.859z"/>
					<path fill="#585A5E" d="M655.615,231.117v1.002c-0.156-0.105-0.373-0.156-0.65-0.156c-0.312,0-0.59,0.096-0.832,0.285
						c-0.242,0.191-0.412,0.455-0.507,0.793v3.875h-0.976v-5.773h0.976v0.756c0.13-0.252,0.323-0.461,0.578-0.625
						c0.256-0.164,0.54-0.246,0.852-0.246C655.306,231.027,655.493,231.056,655.615,231.117z"/>
					<path fill="#585A5E" d="M600.157,253.515v-7.982h2.561c1.171,0,2.108,0.361,2.815,1.086c0.705,0.723,1.059,1.691,1.059,2.904
						c0,1.215-0.354,2.184-1.059,2.906c-0.707,0.725-1.645,1.086-2.815,1.086H600.157z M601.183,252.591h1.521
						c0.901,0,1.605-0.275,2.112-0.824c0.507-0.551,0.761-1.299,0.761-2.244c0-0.943-0.256-1.693-0.768-2.248
						s-1.213-0.832-2.105-0.832h-1.521V252.591z"/>
					<path fill="#585A5E" d="M611.583,251.787h0.923c-0.104,0.562-0.36,1.012-0.767,1.344c-0.408,0.334-0.928,0.502-1.561,0.502
						c-0.789,0-1.428-0.275-1.918-0.826c-0.489-0.551-0.734-1.271-0.734-2.164c0-0.875,0.243-1.598,0.729-2.164
						c0.485-0.568,1.117-0.852,1.898-0.852c0.771,0,1.369,0.258,1.793,0.773c0.425,0.516,0.638,1.201,0.638,2.061v0.35h-4.082
						c0.009,0.607,0.167,1.09,0.474,1.449c0.309,0.361,0.709,0.541,1.203,0.541c0.364,0,0.67-0.09,0.916-0.268
						C611.343,252.355,611.505,252.107,611.583,251.787z M610.167,248.458c-0.434,0-0.798,0.143-1.093,0.428
						c-0.295,0.287-0.477,0.682-0.545,1.184h3.067c-0.009-0.459-0.134-0.844-0.377-1.15
						C610.976,248.611,610.625,248.458,610.167,248.458z"/>
					<path fill="#585A5E" d="M616.38,253.515h-0.962l-2.236-5.773h1.054l1.689,4.537l1.677-4.537h1.027L616.38,253.515z"/>
					<path fill="#585A5E" d="M619.228,250.576v-0.908h3.133v0.908H619.228z"/>
					<path fill="#585A5E" d="M627.905,248.464c0.489,0.559,0.734,1.281,0.734,2.164c0,0.885-0.245,1.605-0.734,2.164
						c-0.489,0.561-1.129,0.84-1.917,0.84c-0.789,0-1.428-0.279-1.918-0.84c-0.49-0.559-0.734-1.279-0.734-2.164
						c0-0.883,0.244-1.605,0.734-2.164s1.129-0.838,1.918-0.838C626.776,247.626,627.416,247.906,627.905,248.464z M627.203,252.183
						c0.299-0.395,0.449-0.912,0.449-1.555c0-0.641-0.15-1.158-0.449-1.553s-0.704-0.592-1.215-0.592
						c-0.512,0-0.917,0.197-1.216,0.592c-0.3,0.395-0.448,0.912-0.448,1.553c0,0.643,0.148,1.16,0.448,1.555
						c0.299,0.393,0.704,0.59,1.216,0.59C626.499,252.773,626.904,252.576,627.203,252.183z"/>
					<path fill="#585A5E" d="M630.941,252.839v2.885h-0.976v-7.982h0.976v0.678c0.164-0.227,0.391-0.414,0.682-0.566
						s0.604-0.227,0.943-0.227c0.814,0,1.451,0.287,1.91,0.863s0.689,1.289,0.689,2.139s-0.23,1.562-0.689,2.139
						s-1.096,0.865-1.91,0.865c-0.339,0-0.652-0.076-0.943-0.229C631.332,253.253,631.105,253.064,630.941,252.839z
						 M630.941,249.458v2.34c0.146,0.295,0.353,0.527,0.617,0.695c0.264,0.17,0.553,0.254,0.864,0.254
						c0.537,0,0.964-0.197,1.28-0.592s0.475-0.902,0.475-1.527c0-0.623-0.158-1.133-0.475-1.527s-0.743-0.592-1.28-0.592
						c-0.312,0-0.601,0.084-0.864,0.254C631.293,248.933,631.087,249.164,630.941,249.458z"/>
					<path fill="#585A5E" d="M636.01,251.929h1.014c0.183,0.59,0.638,0.883,1.365,0.883c0.354,0,0.642-0.07,0.858-0.213
						c0.217-0.145,0.324-0.359,0.324-0.645c0-0.391-0.285-0.658-0.857-0.807l-1.145-0.299c-0.928-0.234-1.391-0.74-1.391-1.52
						c0-0.504,0.195-0.912,0.585-1.229s0.884-0.475,1.481-0.475c0.625,0,1.127,0.143,1.508,0.428
						c0.382,0.287,0.625,0.689,0.729,1.209h-0.975c-0.174-0.545-0.598-0.818-1.274-0.818c-0.304,0-0.563,0.072-0.78,0.215
						s-0.324,0.348-0.324,0.617c0,0.191,0.062,0.34,0.188,0.449c0.127,0.107,0.332,0.201,0.618,0.279l1.118,0.271
						c0.979,0.262,1.469,0.799,1.469,1.613c0,0.537-0.199,0.961-0.598,1.273s-0.914,0.469-1.547,0.469s-1.164-0.152-1.593-0.455
						C636.355,252.873,636.097,252.457,636.01,251.929z"/>
				</g>
			</g>
			<g id="hVCAm4_18_">
				<g>
					<path fill-rule="evenodd" clip-rule="evenodd" fill="#585A5E" d="M597.659,210.708c0.151-0.213,0.443-0.432,0.436-0.639
						c-0.25-5.545,2.992-7.986,7.875-9.254c1.987-0.516,3.899-1.516,5.688-2.564c4.67-2.734,5.23-4.906,2.691-9.549
						c-2.778-5.08-2.293-10.461-1.207-15.787c0.247-1.215,1.588-2.463,2.744-3.186c3.265-2.043,9.669-1.34,12.621,1.115
						c2.58,2.146,2.085,5.188,2.549,8.023c0.731,4.471-0.407,8.445-2.451,12.293c-1.134,2.133-0.485,3.904,1.199,5.307
						c1.24,1.031,2.628,1.928,4.06,2.672c1.442,0.752,2.972,1.445,4.547,1.814c4.621,1.084,7.543,3.559,7.78,8.582
						c0.029,0.584,0.438,1.146,0.671,1.719c0,0.363,0,0.73,0,1.094c-13.099,12.721-33.543,14.994-49.202,0
						C597.659,211.802,597.659,211.255,597.659,210.708z"/>
				</g>
			</g>
		</g>
		<path fill="none" stroke="#585A5E" stroke-width="1.363" stroke-miterlimit="10" d="M655.936,188.677
			c0,9.076-3.535,17.328-9.304,23.451c-6.239,6.621-15.087,10.756-24.902,10.756c-9.445,0-17.998-3.83-24.188-10.02
			c-6.19-6.189-10.019-14.742-10.019-24.188c0-18.893,15.313-34.205,34.206-34.205S655.936,169.785,655.936,188.677z"/>
	</g>
	<g>
		<g>
			<g>
				<g>
					<path fill="#585A5E" d="M122.344,328.463h1.027v7.982h-1.027v-3.64h-4.511v3.64h-1.027v-7.982h1.027v3.419h4.511V328.463z"/>
					<path fill="#585A5E" d="M129.345,331.395c0.49,0.56,0.734,1.281,0.734,2.165s-0.245,1.605-0.734,2.164
						c-0.49,0.56-1.129,0.839-1.917,0.839s-1.428-0.279-1.917-0.839c-0.49-0.559-0.734-1.28-0.734-2.164s0.245-1.605,0.734-2.165
						c0.49-0.559,1.129-0.838,1.917-0.838S128.855,330.836,129.345,331.395z M128.643,335.114c0.299-0.395,0.449-0.912,0.449-1.554
						s-0.149-1.159-0.449-1.554c-0.299-0.395-0.704-0.592-1.215-0.592s-0.917,0.197-1.215,0.592
						c-0.299,0.395-0.449,0.912-0.449,1.554s0.149,1.159,0.449,1.554c0.299,0.394,0.704,0.591,1.215,0.591
						S128.344,335.507,128.643,335.114z"/>
					<path fill="#585A5E" d="M130.924,334.86h1.014c0.182,0.59,0.637,0.884,1.365,0.884c0.355,0,0.641-0.071,0.858-0.214
						c0.217-0.144,0.325-0.358,0.325-0.644c0-0.391-0.286-0.659-0.858-0.807l-1.144-0.299c-0.928-0.234-1.391-0.741-1.391-1.521
						c0-0.503,0.195-0.912,0.585-1.229s0.884-0.475,1.482-0.475c0.624,0,1.126,0.143,1.508,0.429s0.624,0.688,0.728,1.209h-0.975
						c-0.174-0.546-0.598-0.819-1.274-0.819c-0.303,0-0.563,0.072-0.78,0.215c-0.217,0.143-0.325,0.349-0.325,0.617
						c0,0.191,0.063,0.341,0.188,0.449c0.126,0.108,0.332,0.201,0.618,0.279l1.118,0.272c0.979,0.261,1.469,0.798,1.469,1.612
						c0,0.537-0.199,0.962-0.598,1.274c-0.399,0.312-0.915,0.468-1.547,0.468s-1.164-0.151-1.592-0.455
						C131.269,335.804,131.011,335.388,130.924,334.86z"/>
					<path fill="#585A5E" d="M137.06,334.99v-3.484h-0.936v-0.832h0.936v-1.521h0.975v1.521h1.391v0.832h-1.391v3.381
						c0,0.537,0.255,0.806,0.767,0.806c0.268,0,0.52-0.078,0.754-0.234v0.91c-0.243,0.13-0.546,0.195-0.91,0.195
						c-0.485,0-0.871-0.132-1.157-0.396C137.203,335.902,137.06,335.51,137.06,334.99z"/>
					<path fill="#585A5E" d="M145.302,332.792v-0.871h0.533c0.434,0,0.791-0.118,1.073-0.357c0.281-0.238,0.422-0.565,0.422-0.981
						c0-0.39-0.132-0.713-0.396-0.968c-0.265-0.256-0.618-0.384-1.06-0.384s-0.802,0.13-1.079,0.39s-0.446,0.603-0.507,1.027h-1.001
						c0.095-0.685,0.377-1.239,0.845-1.664c0.468-0.425,1.048-0.637,1.742-0.637c0.746,0,1.337,0.201,1.774,0.604
						c0.438,0.402,0.657,0.929,0.657,1.579c0,0.434-0.115,0.817-0.345,1.15c-0.229,0.334-0.531,0.557-0.903,0.67
						c0.433,0.121,0.775,0.349,1.027,0.683c0.251,0.333,0.377,0.726,0.377,1.176c0,0.677-0.232,1.237-0.695,1.684
						c-0.464,0.446-1.085,0.67-1.865,0.67c-0.78,0-1.419-0.217-1.918-0.65c-0.498-0.433-0.782-1.014-0.851-1.742h1.001
						c0.069,0.469,0.255,0.837,0.559,1.105c0.304,0.269,0.702,0.403,1.196,0.403c0.477,0,0.862-0.133,1.157-0.396
						c0.295-0.265,0.442-0.618,0.442-1.06c0-0.434-0.154-0.78-0.462-1.04c-0.308-0.261-0.695-0.391-1.163-0.391H145.302z"/>
				</g>
			</g>
			<g id="hVCAm4_17_">
				<g>
					<path fill-rule="evenodd" clip-rule="evenodd" fill="#585A5E" d="M109.927,310.238c0.151-0.213,0.443-0.432,0.436-0.639
						c-0.25-5.545,2.992-7.986,7.875-9.254c1.987-0.516,3.899-1.516,5.688-2.564c4.67-2.734,5.23-4.906,2.691-9.549
						c-2.778-5.08-2.293-10.461-1.207-15.787c0.247-1.215,1.588-2.463,2.744-3.186c3.265-2.043,9.669-1.34,12.621,1.115
						c2.58,2.146,2.085,5.188,2.549,8.023c0.731,4.471-0.407,8.445-2.451,12.293c-1.134,2.133-0.485,3.904,1.199,5.307
						c1.24,1.031,2.628,1.928,4.06,2.672c1.442,0.752,2.972,1.445,4.547,1.814c4.621,1.084,7.543,3.559,7.78,8.582
						c0.029,0.584,0.438,1.146,0.671,1.719c0,0.363,0,0.73,0,1.094c-13.099,12.721-33.543,14.994-49.202,0
						C109.927,311.332,109.927,310.785,109.927,310.238z"/>
				</g>
			</g>
		</g>
		<path fill="none" stroke="#585A5E" stroke-width="1.363" stroke-miterlimit="10" d="M168.205,288.207
			c0,9.076-3.535,17.328-9.304,23.451c-6.239,6.621-15.087,10.756-24.902,10.756c-9.445,0-17.998-3.83-24.188-10.02
			c-6.19-6.189-10.019-14.742-10.019-24.188c0-18.893,15.313-34.205,34.206-34.205S168.205,269.314,168.205,288.207z"/>
	</g>
	<g>
		<g>
			<g>
				<g>
					<path fill="#585A5E" d="M123.196,127.13h1.027v7.982h-1.027v-3.64h-4.511v3.64h-1.027v-7.982h1.027v3.419h4.511V127.13z"/>
					<path fill="#585A5E" d="M130.196,130.062c0.49,0.56,0.734,1.281,0.734,2.165s-0.245,1.605-0.734,2.164
						c-0.49,0.56-1.129,0.839-1.917,0.839s-1.428-0.279-1.917-0.839c-0.49-0.559-0.734-1.28-0.734-2.164s0.245-1.605,0.734-2.165
						c0.49-0.559,1.129-0.838,1.917-0.838S129.707,129.503,130.196,130.062z M129.494,133.781c0.299-0.395,0.449-0.912,0.449-1.554
						s-0.149-1.159-0.449-1.554c-0.299-0.395-0.704-0.592-1.215-0.592s-0.917,0.197-1.215,0.592
						c-0.299,0.395-0.449,0.912-0.449,1.554s0.149,1.159,0.449,1.554c0.299,0.394,0.704,0.591,1.215,0.591
						S129.195,134.174,129.494,133.781z"/>
					<path fill="#585A5E" d="M131.776,133.527h1.014c0.182,0.59,0.637,0.884,1.365,0.884c0.355,0,0.641-0.071,0.858-0.214
						c0.217-0.144,0.325-0.358,0.325-0.644c0-0.391-0.286-0.659-0.858-0.807l-1.144-0.299c-0.928-0.234-1.391-0.741-1.391-1.521
						c0-0.503,0.195-0.912,0.585-1.229s0.884-0.475,1.482-0.475c0.624,0,1.126,0.143,1.508,0.429s0.624,0.688,0.728,1.209h-0.975
						c-0.174-0.546-0.598-0.819-1.274-0.819c-0.303,0-0.563,0.072-0.78,0.215c-0.217,0.143-0.325,0.349-0.325,0.617
						c0,0.191,0.063,0.341,0.188,0.449c0.126,0.108,0.332,0.201,0.618,0.279l1.118,0.272c0.979,0.261,1.469,0.798,1.469,1.612
						c0,0.537-0.199,0.962-0.598,1.274c-0.399,0.312-0.915,0.468-1.547,0.468s-1.164-0.151-1.592-0.455
						C132.12,134.471,131.862,134.055,131.776,133.527z"/>
					<path fill="#585A5E" d="M137.912,133.657v-3.484h-0.936v-0.832h0.936v-1.521h0.975v1.521h1.391v0.832h-1.391v3.381
						c0,0.537,0.255,0.806,0.767,0.806c0.268,0,0.52-0.078,0.754-0.234v0.91c-0.243,0.13-0.546,0.195-0.91,0.195
						c-0.485,0-0.871-0.132-1.157-0.396C138.055,134.569,137.912,134.177,137.912,133.657z"/>
					<path fill="#585A5E" d="M147.063,127.118v7.995h-1.001v-6.76l-1.976,1.014v-1.04l2.366-1.209H147.063z"/>
				</g>
			</g>
			<g id="hVCAm4_16_">
				<g>
					<path fill-rule="evenodd" clip-rule="evenodd" fill="#585A5E" d="M109.927,108.908c0.151-0.213,0.443-0.432,0.436-0.639
						c-0.25-5.545,2.992-7.986,7.875-9.254c1.987-0.516,3.899-1.516,5.688-2.564c4.67-2.734,5.23-4.906,2.691-9.549
						c-2.778-5.08-2.293-10.461-1.207-15.787c0.247-1.215,1.588-2.463,2.744-3.186c3.265-2.043,9.669-1.34,12.621,1.115
						c2.58,2.146,2.085,5.188,2.549,8.023c0.731,4.471-0.407,8.445-2.451,12.293c-1.134,2.133-0.485,3.904,1.199,5.307
						c1.24,1.031,2.628,1.928,4.06,2.672c1.442,0.752,2.972,1.445,4.547,1.814c4.621,1.084,7.543,3.559,7.78,8.582
						c0.029,0.584,0.438,1.146,0.671,1.719c0,0.363,0,0.73,0,1.094c-13.099,12.721-33.543,14.994-49.202,0
						C109.927,110.002,109.927,109.455,109.927,108.908z"/>
				</g>
			</g>
		</g>
		<path fill="none" stroke="#585A5E" stroke-width="1.363" stroke-miterlimit="10" d="M168.205,86.877
			c0,9.076-3.535,17.328-9.304,23.451c-6.239,6.621-15.087,10.756-24.902,10.756c-9.445,0-17.998-3.83-24.188-10.02
			c-6.19-6.189-10.019-14.742-10.019-24.188c0-18.893,15.313-34.205,34.206-34.205S168.205,67.984,168.205,86.877z"/>
	</g>
	
		<line fill="none" stroke="#585A5E" stroke-width="0.25" stroke-miterlimit="10" x1="583.249" y1="241.841" x2="656.358" y2="241.841"/>
</g>
</svg>
